<svg width="18" height="13" viewBox="0 0 18 13" fill="none" xmlns="http://www.w3.org/2000/svg">
<path fill-rule="evenodd" clip-rule="evenodd" d="M17.1768 2.04963C16.9805 1.29563 16.4022 0.701884 15.6679 0.500375C14.3371 0.134155 9.00013 0.134155 9.00013 0.134155C9.00013 0.134155 3.66321 0.134155 2.3323 0.500375C1.59795 0.701884 1.01962 1.29563 0.823354 2.04963C0.466797 3.41618 0.466797 6.26749 0.466797 6.26749C0.466797 6.26749 0.466797 9.1187 0.823354 10.4853C1.01962 11.2393 1.59795 11.8331 2.3323 12.0347C3.66321 12.4008 9.00013 12.4008 9.00013 12.4008C9.00013 12.4008 14.3371 12.4008 15.6679 12.0347C16.4022 11.8331 16.9805 11.2393 17.1768 10.4853C17.5335 9.1187 17.5335 6.26749 17.5335 6.26749C17.5335 6.26749 17.5335 3.41618 17.1768 2.04963Z" fill="#0E333D"/>
<path fill-rule="evenodd" clip-rule="evenodd" d="M7 8.33333V3L12 5.66677L7 8.33333Z" fill="white"/>
</svg>
