<svg width="15" height="12" viewBox="0 0 15 12" fill="none" xmlns="http://www.w3.org/2000/svg">
<path fill-rule="evenodd" clip-rule="evenodd" d="M1.05779 5.16468C5.07867 3.457 7.76642 2.35326 9.09954 1.8118C12.9269 0.270729 13.7225 0 14.2385 0C14.346 0 14.6041 0.0208255 14.7761 0.145777C14.9051 0.249904 14.9481 0.39568 14.9696 0.499807C14.9911 0.603933 15.0126 0.833012 14.9911 1.02044C14.7761 3.1238 13.8945 8.26765 13.4214 10.6209C13.2279 11.6205 12.8409 11.9537 12.4754 11.9954C11.6798 12.0579 11.0562 11.4747 10.2822 10.9958C9.07804 10.2252 8.38998 9.74624 7.20737 8.99653C5.85274 8.12187 6.73432 7.64289 7.50839 6.87235C7.70191 6.6641 11.2497 3.56113 11.3142 3.26957C11.3142 3.22792 11.3358 3.10297 11.2497 3.04049C11.1637 2.97802 11.0562 2.99884 10.9702 3.01967C10.8412 3.04049 8.90603 4.29001 5.14317 6.7474C4.58412 7.12225 4.08958 7.28886 3.63803 7.28886C3.14349 7.28886 2.1974 7.01813 1.48783 6.78905C0.627752 6.51832 -0.0603123 6.37254 0.00419369 5.91439C0.0686997 5.66448 0.412732 5.41458 1.05779 5.16468Z" fill="white"/>
</svg>
